# Blender v2.90.1 OBJ File: 'floorplan.blend'
# www.blender.org
mtllib floorplan.mtl
o Box0Wall0
v -1.790000 1.000000 -1.830000
v -1.790000 0.000000 -1.830000
v -1.790000 1.000000 -1.950000
v -1.790000 0.000000 -1.950000
vn 1.0000 0.0000 0.0000
usemtl MaterialName
s off
f 1//1 2//1 4//1 3//1
o Box0Wall1
v -1.790000 1.000000 -1.950000
v -1.790000 0.000000 -1.950000
v -1.900000 1.000000 -1.950000
v -1.900000 0.000000 -1.950000
vn 0.0000 0.0000 -1.0000
usemtl MaterialName.001
s off
f 5//2 6//2 8//2 7//2
o Box0Wall2
v -1.900000 1.000000 -1.950000
v -1.900000 0.000000 -1.950000
v -1.900000 1.000000 -1.830000
v -1.900000 0.000000 -1.830000
vn -1.0000 0.0000 0.0000
usemtl MaterialName.002
s off
f 9//3 10//3 12//3 11//3
o Box0Wall3
v -1.900000 1.000000 -1.830000
v -1.900000 0.000000 -1.830000
v -1.790000 1.000000 -1.830000
v -1.790000 0.000000 -1.830000
vn 0.0000 0.0000 1.0000
usemtl MaterialName.003
s off
f 13//4 14//4 16//4 15//4
o Box1Wall4
v 0.040000 1.000000 -1.830000
v 0.040000 0.000000 -1.830000
v 0.040000 1.000000 -1.950000
v 0.040000 0.000000 -1.950000
vn 1.0000 -0.0000 0.0000
usemtl MaterialName.004
s off
f 17//5 18//5 20//5 19//5
o Box1Wall5
v 0.040000 1.000000 -1.950000
v 0.040000 0.000000 -1.950000
v -1.250000 1.000000 -1.950000
v -1.250000 0.000000 -1.950000
vn 0.0000 0.0000 -1.0000
usemtl MaterialName.005
s off
f 21//6 22//6 24//6 23//6
o Box1Wall6
v -1.250000 1.000000 -1.950000
v -1.250000 0.000000 -1.950000
v -1.250000 1.000000 -1.830000
v -1.250000 0.000000 -1.830000
vn -1.0000 0.0000 0.0000
usemtl MaterialName.006
s off
f 25//7 26//7 28//7 27//7
o Box1Wall7
v -1.250000 1.000000 -1.830000
v -1.250000 0.000000 -1.830000
v 0.040000 1.000000 -1.830000
v 0.040000 0.000000 -1.830000
vn 0.0000 0.0000 1.0000
usemtl MaterialName.007
s off
f 29//8 30//8 32//8 31//8
o Box2Wall8
v -3.250000 1.000000 -0.510000
v -3.250000 0.000000 -0.510000
v -3.130000 1.000000 -0.510000
v -3.130000 0.000000 -0.510000
vn 0.0000 0.0000 1.0000
usemtl MaterialName.008
s off
f 33//9 34//9 36//9 35//9
o Box2Wall9
v -3.130000 1.000000 -0.510000
v -3.130000 0.000000 -0.510000
v -3.130000 1.000000 -1.820000
v -3.130000 0.000000 -1.820000
vn 1.0000 0.0000 0.0000
usemtl MaterialName.009
s off
f 37//10 38//10 40//10 39//10
o Box2Wall10
v -3.130000 1.000000 -1.820000
v -3.130000 0.000000 -1.820000
v -3.120000 1.000000 -1.830000
v -3.120000 0.000000 -1.830000
vn 0.7071 0.0000 0.7071
usemtl MaterialName.010
s off
f 41//11 42//11 44//11 43//11
o Box2Wall11
v -3.120000 1.000000 -1.830000
v -3.120000 0.000000 -1.830000
v -2.730000 1.000000 -1.830000
v -2.730000 0.000000 -1.830000
vn 0.0000 0.0000 1.0000
usemtl MaterialName.011
s off
f 45//12 46//12 48//12 47//12
o Box2Wall12
v -2.730000 1.000000 -1.830000
v -2.730000 0.000000 -1.830000
v -2.730000 1.000000 -1.950000
v -2.730000 0.000000 -1.950000
vn 1.0000 0.0000 0.0000
usemtl MaterialName.012
s off
f 49//13 50//13 52//13 51//13
o Box2Wall13
v -2.730000 1.000000 -1.950000
v -2.730000 0.000000 -1.950000
v -3.240000 1.000000 -1.950000
v -3.240000 0.000000 -1.950000
vn 0.0000 0.0000 -1.0000
usemtl MaterialName.013
s off
f 53//14 54//14 56//14 55//14
o Box2Wall14
v -3.240000 1.000000 -1.950000
v -3.240000 0.000000 -1.950000
v -3.250000 1.000000 -1.940000
v -3.250000 0.000000 -1.940000
vn -0.7071 0.0000 -0.7071
usemtl MaterialName.014
s off
f 57//15 58//15 60//15 59//15
o Box2Wall15
v -3.250000 1.000000 -1.940000
v -3.250000 0.000000 -1.940000
v -3.250000 1.000000 -0.510000
v -3.250000 0.000000 -0.510000
vn -1.0000 0.0000 0.0000
usemtl MaterialName.015
s off
f 61//16 62//16 64//16 63//16
o Box3Wall16
v -0.380000 1.000000 -0.440000
v -0.380000 0.000000 -0.440000
v -0.380000 1.000000 -0.560000
v -0.380000 0.000000 -0.560000
vn 1.0000 -0.0000 0.0000
usemtl MaterialName.016
s off
f 65//17 66//17 68//17 67//17
o Box3Wall17
v -0.380000 1.000000 -0.560000
v -0.380000 0.000000 -0.560000
v -0.540000 1.000000 -0.560000
v -0.540000 0.000000 -0.560000
vn 0.0000 0.0000 -1.0000
usemtl MaterialName.017
s off
f 69//18 70//18 72//18 71//18
o Box3Wall18
v -0.540000 1.000000 -0.560000
v -0.540000 0.000000 -0.560000
v -0.560000 1.000000 -0.580000
v -0.560000 0.000000 -0.580000
vn 0.7071 -0.0000 -0.7071
usemtl MaterialName.018
s off
f 73//19 74//19 76//19 75//19
o Box3Wall19
v -0.560000 1.000000 -0.580000
v -0.560000 0.000000 -0.580000
v -0.560000 1.000000 -0.660000
v -0.560000 0.000000 -0.660000
vn 1.0000 -0.0000 0.0000
usemtl MaterialName.019
s off
f 77//20 78//20 80//20 79//20
o Box3Wall20
v -0.560000 1.000000 -0.660000
v -0.560000 0.000000 -0.660000
v -0.550000 1.000000 -0.670000
v -0.550000 0.000000 -0.670000
vn 0.7071 -0.0000 0.7071
usemtl MaterialName.020
s off
f 81//21 82//21 84//21 83//21
o Box3Wall21
v -0.550000 1.000000 -0.670000
v -0.550000 0.000000 -0.670000
v -0.550000 1.000000 -0.820000
v -0.550000 0.000000 -0.820000
vn 1.0000 -0.0000 0.0000
usemtl MaterialName.021
s off
f 85//22 86//22 88//22 87//22
o Box3Wall22
v -0.550000 1.000000 -0.820000
v -0.550000 0.000000 -0.820000
v -0.560000 1.000000 -0.830000
v -0.560000 0.000000 -0.830000
vn 0.7071 -0.0000 -0.7071
usemtl MaterialName.022
s off
f 89//23 90//23 92//23 91//23
o Box3Wall23
v -0.560000 1.000000 -0.830000
v -0.560000 0.000000 -0.830000
v -0.560000 1.000000 -0.870000
v -0.560000 0.000000 -0.870000
vn 1.0000 -0.0000 0.0000
usemtl MaterialName.023
s off
f 93//24 94//24 96//24 95//24
o Box3Wall24
v -0.560000 1.000000 -0.870000
v -0.560000 0.000000 -0.870000
v -0.670000 1.000000 -0.870000
v -0.670000 0.000000 -0.870000
vn 0.0000 0.0000 -1.0000
usemtl MaterialName.024
s off
f 97//25 98//25 100//25 99//25
o Box3Wall25
v -0.670000 1.000000 -0.870000
v -0.670000 0.000000 -0.870000
v -0.670000 1.000000 -0.440000
v -0.670000 0.000000 -0.440000
vn -1.0000 0.0000 0.0000
usemtl MaterialName.025
s off
f 101//26 102//26 104//26 103//26
o Box3Wall26
v -0.670000 1.000000 -0.440000
v -0.670000 0.000000 -0.440000
v -0.380000 1.000000 -0.440000
v -0.380000 0.000000 -0.440000
vn 0.0000 0.0000 1.0000
usemtl MaterialName.026
s off
f 105//27 106//27 108//27 107//27
o Box4Wall27
v 0.120000 1.000000 -0.440000
v 0.120000 0.000000 -0.440000
v 0.120000 1.000000 -0.560000
v 0.120000 0.000000 -0.560000
vn 1.0000 -0.0000 0.0000
usemtl MaterialName.027
s off
f 109//28 110//28 112//28 111//28
o Box4Wall28
v 0.120000 1.000000 -0.560000
v 0.120000 0.000000 -0.560000
v -0.010000 1.000000 -0.560000
v -0.010000 0.000000 -0.560000
vn 0.0000 0.0000 -1.0000
usemtl MaterialName.028
s off
f 113//29 114//29 116//29 115//29
o Box4Wall29
v -0.010000 1.000000 -0.560000
v -0.010000 0.000000 -0.560000
v -0.010000 1.000000 -0.440000
v -0.010000 0.000000 -0.440000
vn -1.0000 0.0000 0.0000
usemtl MaterialName.029
s off
f 117//30 118//30 120//30 119//30
o Box4Wall30
v -0.010000 1.000000 -0.440000
v -0.010000 0.000000 -0.440000
v 0.120000 1.000000 -0.440000
v 0.120000 0.000000 -0.440000
vn 0.0000 0.0000 1.0000
usemtl MaterialName.030
s off
f 121//31 122//31 124//31 123//31
o Box5Wall31
v 0.760000 1.000000 -0.440000
v 0.760000 -0.000000 -0.440000
v 0.760000 1.000000 -1.940000
v 0.760000 -0.000000 -1.940000
vn 1.0000 -0.0000 0.0000
usemtl MaterialName.031
s off
f 125//32 126//32 128//32 127//32
o Box5Wall32
v 0.760000 1.000000 -1.940000
v 0.760000 -0.000000 -1.940000
v 0.750000 1.000000 -1.950000
v 0.750000 -0.000000 -1.950000
vn 0.7071 -0.0000 -0.7071
usemtl MaterialName.032
s off
f 129//33 130//33 132//33 131//33
o Box5Wall33
v 0.750000 1.000000 -1.950000
v 0.750000 -0.000000 -1.950000
v 0.320000 1.000000 -1.950000
v 0.320000 -0.000000 -1.950000
vn 0.0000 0.0000 -1.0000
usemtl MaterialName.033
s off
f 133//34 134//34 136//34 135//34
o Box5Wall34
v 0.320000 1.000000 -1.950000
v 0.320000 -0.000000 -1.950000
v 0.320000 1.000000 -1.830000
v 0.320000 -0.000000 -1.830000
vn -1.0000 0.0000 0.0000
usemtl MaterialName.034
s off
f 137//35 138//35 140//35 139//35
o Box5Wall35
v 0.320000 1.000000 -1.830000
v 0.320000 -0.000000 -1.830000
v 0.630000 1.000000 -1.830000
v 0.630000 -0.000000 -1.830000
vn 0.0000 0.0000 1.0000
usemtl MaterialName.035
s off
f 141//36 142//36 144//36 143//36
o Box5Wall36
v 0.630000 1.000000 -1.830000
v 0.630000 -0.000000 -1.830000
v 0.640000 1.000000 -1.820000
v 0.640000 -0.000000 -1.820000
vn -0.7071 0.0000 0.7071
usemtl MaterialName.036
s off
f 145//37 146//37 148//37 147//37
o Box5Wall37
v 0.640000 1.000000 -1.820000
v 0.640000 -0.000000 -1.820000
v 0.640000 1.000000 -1.430000
v 0.640000 -0.000000 -1.430000
vn -1.0000 0.0000 0.0000
usemtl MaterialName.037
s off
f 149//38 150//38 152//38 151//38
o Box5Wall38
v 0.640000 1.000000 -1.430000
v 0.640000 -0.000000 -1.430000
v 0.630000 1.000000 -1.420000
v 0.630000 -0.000000 -1.420000
vn -0.7071 0.0000 -0.7071
usemtl MaterialName.038
s off
f 153//39 154//39 156//39 155//39
o Box5Wall39
v 0.630000 1.000000 -1.420000
v 0.630000 -0.000000 -1.420000
v 0.630000 1.000000 -1.130000
v 0.630000 -0.000000 -1.130000
vn -1.0000 0.0000 0.0000
usemtl MaterialName.039
s off
f 157//40 158//40 160//40 159//40
o Box5Wall40
v 0.630000 1.000000 -1.130000
v 0.630000 -0.000000 -1.130000
v 0.640000 1.000000 -1.120000
v 0.640000 -0.000000 -1.120000
vn -0.7071 0.0000 0.7071
usemtl MaterialName.040
s off
f 161//41 162//41 164//41 163//41
o Box5Wall41
v 0.640000 1.000000 -1.120000
v 0.640000 -0.000000 -1.120000
v 0.640000 1.000000 -0.570000
v 0.640000 -0.000000 -0.570000
vn -1.0000 0.0000 0.0000
usemtl MaterialName.041
s off
f 165//42 166//42 168//42 167//42
o Box5Wall42
v 0.640000 1.000000 -0.570000
v 0.640000 -0.000000 -0.570000
v 0.630000 1.000000 -0.560000
v 0.630000 -0.000000 -0.560000
vn -0.7071 0.0000 -0.7071
usemtl MaterialName.042
s off
f 169//43 170//43 172//43 171//43
o Box5Wall43
v 0.630000 1.000000 -0.560000
v 0.630000 -0.000000 -0.560000
v 0.470000 1.000000 -0.560000
v 0.470000 -0.000000 -0.560000
vn 0.0000 0.0000 -1.0000
usemtl MaterialName.043
s off
f 173//44 174//44 176//44 175//44
o Box5Wall44
v 0.470000 1.000000 -0.560000
v 0.470000 -0.000000 -0.560000
v 0.470000 1.000000 -0.440000
v 0.470000 -0.000000 -0.440000
vn -1.0000 0.0000 0.0000
usemtl MaterialName.044
s off
f 177//45 178//45 180//45 179//45
o Box5Wall45
v 0.470000 1.000000 -0.440000
v 0.470000 -0.000000 -0.440000
v 0.760000 1.000000 -0.440000
v 0.760000 -0.000000 -0.440000
vn 0.0000 0.0000 1.0000
usemtl MaterialName.045
s off
f 181//46 182//46 184//46 183//46
o Box6Wall46
v -0.470000 1.000000 0.470000
v -0.470000 0.000000 0.470000
v -0.470000 1.000000 0.360000
v -0.470000 0.000000 0.360000
vn 1.0000 -0.0000 0.0000
usemtl MaterialName.046
s off
f 185//47 186//47 188//47 187//47
o Box6Wall47
v -0.470000 1.000000 0.360000
v -0.470000 0.000000 0.360000
v -1.420000 1.000000 0.360000
v -1.420000 0.000000 0.360000
vn 0.0000 0.0000 -1.0000
usemtl MaterialName.047
s off
f 189//48 190//48 192//48 191//48
o Box6Wall48
v -1.420000 1.000000 0.360000
v -1.420000 0.000000 0.360000
v -1.420000 1.000000 0.480000
v -1.420000 0.000000 0.480000
vn -1.0000 0.0000 0.0000
usemtl MaterialName.048
s off
f 193//49 194//49 196//49 195//49
o Box6Wall49
v -1.420000 1.000000 0.480000
v -1.420000 0.000000 0.480000
v -0.680000 1.000000 0.480000
v -0.680000 0.000000 0.480000
vn 0.0000 0.0000 1.0000
usemtl MaterialName.049
s off
f 197//50 198//50 200//50 199//50
o Box6Wall50
v -0.680000 1.000000 0.480000
v -0.680000 0.000000 0.480000
v -0.670000 1.000000 0.490000
v -0.670000 0.000000 0.490000
vn -0.7071 0.0000 0.7071
usemtl MaterialName.050
s off
f 201//51 202//51 204//51 203//51
o Box6Wall51
v -0.670000 1.000000 0.490000
v -0.670000 0.000000 0.490000
v -0.560000 1.000000 0.490000
v -0.560000 0.000000 0.490000
vn 0.0000 0.0000 1.0000
usemtl MaterialName.051
s off
f 205//52 206//52 208//52 207//52
o Box6Wall52
v -0.560000 1.000000 0.490000
v -0.560000 0.000000 0.490000
v -0.540000 1.000000 0.470000
v -0.540000 0.000000 0.470000
vn 0.7071 -0.0000 0.7071
usemtl MaterialName.052
s off
f 209//53 210//53 212//53 211//53
o Box6Wall53
v -0.540000 1.000000 0.470000
v -0.540000 0.000000 0.470000
v -0.470000 1.000000 0.470000
v -0.470000 0.000000 0.470000
vn 0.0000 0.0000 1.0000
usemtl MaterialName.053
s off
f 213//54 214//54 216//54 215//54
o Box7Wall54
v -1.660000 1.000000 0.480000
v -1.660000 0.000000 0.480000
v -1.660000 1.000000 0.360000
v -1.660000 0.000000 0.360000
vn 1.0000 0.0000 0.0000
usemtl MaterialName.054
s off
f 217//55 218//55 220//55 219//55
o Box7Wall55
v -1.660000 1.000000 0.360000
v -1.660000 0.000000 0.360000
v -1.680000 1.000000 0.360000
v -1.680000 0.000000 0.360000
vn 0.0000 0.0000 -1.0000
usemtl MaterialName.055
s off
f 221//56 222//56 224//56 223//56
o Box7Wall56
v -1.680000 1.000000 0.360000
v -1.680000 0.000000 0.360000
v -1.690000 1.000000 0.350000
v -1.690000 0.000000 0.350000
vn 0.7071 0.0000 -0.7071
usemtl MaterialName.056
s off
f 225//57 226//57 228//57 227//57
o Box7Wall57
v -1.690000 1.000000 0.350000
v -1.690000 0.000000 0.350000
v -1.690000 1.000000 0.050000
v -1.690000 0.000000 0.050000
vn 1.0000 0.0000 0.0000
usemtl MaterialName.057
s off
f 229//58 230//58 232//58 231//58
o Box7Wall58
v -1.690000 1.000000 0.050000
v -1.690000 0.000000 0.050000
v -3.120000 1.000000 0.050000
v -3.120000 0.000000 0.050000
vn -0.0000 0.0000 -1.0000
usemtl MaterialName.058
s off
f 233//59 234//59 236//59 235//59
o Box7Wall59
v -3.120000 1.000000 0.050000
v -3.120000 0.000000 0.050000
v -3.130000 1.000000 0.040000
v -3.130000 0.000000 0.040000
vn 0.7071 0.0000 -0.7071
usemtl MaterialName.059
s off
f 237//60 238//60 240//60 239//60
o Box7Wall60
v -3.130000 1.000000 0.040000
v -3.130000 0.000000 0.040000
v -3.130000 1.000000 0.030000
v -3.130000 0.000000 0.030000
vn 1.0000 0.0000 0.0000
usemtl MaterialName.060
s off
f 241//61 242//61 244//61 243//61
o Box7Wall61
v -3.130000 1.000000 0.030000
v -3.130000 0.000000 0.030000
v -3.250000 1.000000 0.030000
v -3.250000 0.000000 0.030000
vn 0.0000 0.0000 -1.0000
usemtl MaterialName.061
s off
f 245//62 246//62 248//62 247//62
o Box7Wall62
v -3.250000 1.000000 0.030000
v -3.250000 0.000000 0.030000
v -3.250000 1.000000 0.170000
v -3.250000 0.000000 0.170000
vn -1.0000 0.0000 0.0000
usemtl MaterialName.062
s off
f 249//63 250//63 252//63 251//63
o Box7Wall63
v -3.250000 1.000000 0.170000
v -3.250000 0.000000 0.170000
v -1.820000 1.000000 0.170000
v -1.820000 0.000000 0.170000
vn 0.0000 0.0000 1.0000
usemtl MaterialName.063
s off
f 253//64 254//64 256//64 255//64
o Box7Wall64
v -1.820000 1.000000 0.170000
v -1.820000 0.000000 0.170000
v -1.810000 1.000000 0.180000
v -1.810000 0.000000 0.180000
vn -0.7071 0.0000 0.7071
usemtl MaterialName.064
s off
f 257//65 258//65 260//65 259//65
o Box7Wall65
v -1.810000 1.000000 0.180000
v -1.810000 0.000000 0.180000
v -1.810000 1.000000 0.510000
v -1.810000 0.000000 0.510000
vn -1.0000 0.0000 0.0000
usemtl MaterialName.065
s off
f 261//66 262//66 264//66 263//66
o Box7Wall66
v -1.810000 1.000000 0.510000
v -1.810000 0.000000 0.510000
v -1.690000 1.000000 0.510000
v -1.690000 0.000000 0.510000
vn 0.0000 0.0000 1.0000
usemtl MaterialName.066
s off
f 265//67 266//67 268//67 267//67
o Box7Wall67
v -1.690000 1.000000 0.510000
v -1.690000 0.000000 0.510000
v -1.690000 1.000000 0.490000
v -1.690000 0.000000 0.490000
vn 1.0000 0.0000 0.0000
usemtl MaterialName.067
s off
f 269//68 270//68 272//68 271//68
o Box7Wall68
v -1.690000 1.000000 0.490000
v -1.690000 0.000000 0.490000
v -1.680000 1.000000 0.480000
v -1.680000 0.000000 0.480000
vn 0.7071 0.0000 0.7071
usemtl MaterialName.068
s off
f 273//69 274//69 276//69 275//69
o Box7Wall69
v -1.680000 1.000000 0.480000
v -1.680000 0.000000 0.480000
v -1.660000 1.000000 0.480000
v -1.660000 0.000000 0.480000
vn 0.0000 0.0000 1.0000
usemtl MaterialName.069
s off
f 277//70 278//70 280//70 279//70
o Box8Wall70
v 0.760000 1.000000 1.900000
v 0.760000 -0.000000 1.900000
v 0.760000 1.000000 0.360000
v 0.760000 -0.000000 0.360000
vn 1.0000 -0.0000 0.0000
usemtl MaterialName.070
s off
f 281//71 282//71 284//71 283//71
o Box8Wall71
v 0.760000 1.000000 0.360000
v 0.760000 -0.000000 0.360000
v 0.140000 1.000000 0.360000
v 0.140000 0.000000 0.360000
vn 0.0000 0.0000 -1.0000
usemtl MaterialName.071
s off
f 285//72 286//72 288//72 287//72
o Box8Wall72
v 0.140000 1.000000 0.360000
v 0.140000 0.000000 0.360000
v 0.140000 1.000000 0.470000
v 0.140000 0.000000 0.470000
vn -1.0000 0.0000 0.0000
usemtl MaterialName.072
s off
f 289//73 290//73 292//73 291//73
o Box8Wall73
v 0.140000 1.000000 0.470000
v 0.140000 0.000000 0.470000
v 0.640000 1.000000 0.480000
v 0.640000 -0.000000 0.480000
vn -0.0200 0.0000 0.9998
usemtl MaterialName.073
s off
f 293//74 294//74 296//74 295//74
o Box8Wall74
v 0.640000 1.000000 0.480000
v 0.640000 -0.000000 0.480000
v 0.630000 1.000000 1.790000
v 0.630000 -0.000000 1.790000
vn -1.0000 0.0000 -0.0076
usemtl MaterialName.074
s off
f 297//75 298//75 300//75 299//75
o Box8Wall75
v 0.630000 1.000000 1.790000
v 0.630000 -0.000000 1.790000
v -0.540000 1.000000 1.790000
v -0.540000 0.000000 1.790000
vn 0.0000 0.0000 -1.0000
usemtl MaterialName.075
s off
f 301//76 302//76 304//76 303//76
o Box8Wall76
v -0.540000 1.000000 1.790000
v -0.540000 0.000000 1.790000
v -0.560000 1.000000 0.790000
v -0.560000 0.000000 0.790000
vn 0.9998 -0.0000 -0.0200
usemtl MaterialName.076
s off
f 305//77 306//77 308//77 307//77
o Box8Wall77
v -0.560000 1.000000 0.790000
v -0.560000 0.000000 0.790000
v -1.420000 1.000000 0.800000
v -1.420000 0.000000 0.800000
vn -0.0116 0.0000 -0.9999
usemtl MaterialName.077
s off
f 309//78 310//78 312//78 311//78
o Box8Wall78
v -1.420000 1.000000 0.800000
v -1.420000 0.000000 0.800000
v -1.420000 1.000000 0.920000
v -1.420000 0.000000 0.920000
vn -1.0000 0.0000 0.0000
usemtl MaterialName.078
s off
f 313//79 314//79 316//79 315//79
o Box8Wall79
v -1.420000 1.000000 0.920000
v -1.420000 0.000000 0.920000
v -0.680000 1.000000 0.930000
v -0.680000 0.000000 0.930000
vn -0.0135 0.0000 0.9999
usemtl MaterialName.079
s off
f 317//80 318//80 320//80 319//80
o Box8Wall80
v -0.680000 1.000000 0.930000
v -0.680000 0.000000 0.930000
v -0.680000 1.000000 1.790000
v -0.680000 0.000000 1.790000
vn -1.0000 0.0000 0.0000
usemtl MaterialName.080
s off
f 321//81 322//81 324//81 323//81
o Box8Wall81
v -0.680000 1.000000 1.790000
v -0.680000 0.000000 1.790000
v -0.900000 1.000000 1.770000
v -0.900000 0.000000 1.770000
vn 0.0905 0.0000 -0.9959
usemtl MaterialName.081
s off
f 325//82 326//82 328//82 327//82
o Box8Wall82
v -0.900000 1.000000 1.770000
v -0.900000 0.000000 1.770000
v -0.900000 1.000000 1.430000
v -0.900000 0.000000 1.430000
vn 1.0000 -0.0000 0.0000
usemtl MaterialName.082
s off
f 329//83 330//83 332//83 331//83
o Box8Wall83
v -0.900000 1.000000 1.430000
v -0.900000 0.000000 1.430000
v -1.030000 1.000000 1.430000
v -1.030000 0.000000 1.430000
vn 0.0000 0.0000 -1.0000
usemtl MaterialName.083
s off
f 333//84 334//84 336//84 335//84
o Box8Wall84
v -1.030000 1.000000 1.430000
v -1.030000 0.000000 1.430000
v -1.020000 1.000000 1.790000
v -1.020000 0.000000 1.790000
vn -0.9996 0.0000 0.0278
usemtl MaterialName.084
s off
f 337//85 338//85 340//85 339//85
o Box8Wall85
v -1.020000 1.000000 1.790000
v -1.020000 0.000000 1.790000
v -1.360000 1.000000 1.780000
v -1.360000 0.000000 1.780000
vn 0.0294 0.0000 -0.9996
usemtl MaterialName.085
s off
f 341//86 342//86 344//86 343//86
o Box8Wall86
v -1.360000 1.000000 1.780000
v -1.360000 0.000000 1.780000
v -1.350000 1.000000 1.430000
v -1.350000 0.000000 1.430000
vn 0.9996 0.0000 0.0286
usemtl MaterialName.086
s off
f 345//87 346//87 348//87 347//87
o Box8Wall87
v -1.350000 1.000000 1.430000
v -1.350000 0.000000 1.430000
v -1.480000 1.000000 1.430000
v -1.480000 0.000000 1.430000
vn 0.0000 0.0000 -1.0000
usemtl MaterialName.087
s off
f 349//88 350//88 352//88 351//88
o Box8Wall88
v -1.480000 1.000000 1.430000
v -1.480000 0.000000 1.430000
v -1.480000 1.000000 1.780000
v -1.480000 0.000000 1.780000
vn -1.0000 0.0000 0.0000
usemtl MaterialName.088
s off
f 353//89 354//89 356//89 355//89
o Box8Wall89
v -1.480000 1.000000 1.780000
v -1.480000 0.000000 1.780000
v -1.680000 1.000000 1.790000
v -1.680000 0.000000 1.790000
vn -0.0499 0.0000 -0.9988
usemtl MaterialName.089
s off
f 357//90 358//90 360//90 359//90
o Box8Wall90
v -1.680000 1.000000 1.790000
v -1.680000 0.000000 1.790000
v -1.690000 1.000000 0.770000
v -1.690000 0.000000 0.770000
vn 1.0000 0.0000 -0.0098
usemtl MaterialName.090
s off
f 361//91 362//91 364//91 363//91
o Box8Wall91
v -1.690000 1.000000 0.770000
v -1.690000 0.000000 0.770000
v -1.810000 1.000000 0.770000
v -1.810000 0.000000 0.770000
vn 0.0000 0.0000 -1.0000
usemtl MaterialName.091
s off
f 365//92 366//92 368//92 367//92
o Box8Wall92
v -1.810000 1.000000 0.770000
v -1.810000 0.000000 0.770000
v -1.820000 1.000000 1.790000
v -1.820000 0.000000 1.790000
vn -1.0000 0.0000 -0.0098
usemtl MaterialName.092
s off
f 369//93 370//93 372//93 371//93
o Box8Wall93
v -1.820000 1.000000 1.790000
v -1.820000 0.000000 1.790000
v -3.120000 1.000000 1.790000
v -3.120000 0.000000 1.790000
vn -0.0000 0.0000 -1.0000
usemtl MaterialName.093
s off
f 373//94 374//94 376//94 375//94
o Box8Wall94
v -3.120000 1.000000 1.790000
v -3.120000 0.000000 1.790000
v -3.130000 1.000000 0.670000
v -3.130000 0.000000 0.670000
vn 1.0000 0.0000 -0.0089
usemtl MaterialName.094
s off
f 377//95 378//95 380//95 379//95
o Box8Wall95
v -3.130000 1.000000 0.670000
v -3.130000 0.000000 0.670000
v -3.250000 1.000000 0.670000
v -3.250000 0.000000 0.670000
vn 0.0000 0.0000 -1.0000
usemtl MaterialName.095
s off
f 381//96 382//96 384//96 383//96
o Box8Wall96
v -3.250000 1.000000 0.670000
v -3.250000 0.000000 0.670000
v -3.250000 1.000000 1.910000
v -3.250000 0.000000 1.910000
vn -1.0000 0.0000 0.0000
usemtl MaterialName.096
s off
f 385//97 386//97 388//97 387//97
o Box8Wall97
v -3.250000 1.000000 1.910000
v -3.250000 0.000000 1.910000
v 0.760000 1.000000 1.900000
v 0.760000 -0.000000 1.900000
vn 0.0025 0.0000 1.0000
usemtl MaterialName.097
s off
f 389//98 390//98 392//98 391//98
o Floor
v 0.730000 -0.000000 1.880000
v 0.730000 -0.000000 -1.920000
v 0.360000 -0.000000 -1.920000
v 0.350000 -0.000000 -2.260000
v 0.290000 -0.000000 -2.260000
v 0.150000 -0.000000 -2.220000
v 0.070000 -0.000000 -2.150000
v 0.000000 0.000000 -1.920000
v -3.230000 0.000000 -1.910000
v -3.220000 0.000000 1.880000
vn 0.0000 1.0000 0.0000
usemtl MaterialName.098
s off
f 393//99 394//99 395//99 396//99 397//99 398//99 399//99 400//99 401//99 402//99
o Room0
v 0.610000 0.001000 -0.590000
v 0.610000 0.001000 -1.820000
v -3.120000 0.001000 -1.810000
v -3.110000 0.001000 0.040000
v -1.690000 0.001000 0.030000
v -1.670000 0.001000 0.340000
v -0.680000 0.001000 0.340000
v -0.680000 0.001000 -0.890000
v -0.550000 0.001000 -0.880000
v -0.540000 0.001000 -0.590000
vn 0.0000 1.0000 0.0000
usemtl MaterialName.099
s off
f 403//100 404//100 405//100 406//100 407//100 408//100 409//100 410//100 411//100 412//100
o Room1
v 0.610000 0.001000 0.340000
v 0.610000 0.001000 -0.430000
v -0.530000 0.001000 -0.430000
v -0.530000 0.001000 0.340000
vn 0.0000 1.0000 0.0000
usemtl MaterialName.100
s off
f 413//101 414//101 415//101 416//101
o Room2
v -1.830000 0.001000 1.760000
v -1.830000 0.001000 0.190000
v -1.840000 0.001000 0.180000
v -3.120000 0.001000 0.180000
v -3.120000 0.001000 1.760000
vn 0.0000 1.0000 0.0000
usemtl MaterialName.101
s off
f 417//102 418//102 419//102 420//102 421//102
o Room3
v -0.700000 0.001000 1.760000
v -0.700000 0.001000 0.940000
v -1.670000 0.001000 0.940000
v -1.670000 0.001000 1.760000
v -1.500000 0.001000 1.760000
v -1.500000 0.001000 1.420000
v -1.490000 0.001000 1.410000
v -0.900000 0.001000 1.410000
v -0.890000 0.001000 1.420000
v -0.890000 0.001000 1.750000
v -0.880000 0.001000 1.760000
vn 0.0000 1.0000 0.0000
usemtl MaterialName.102
s off
f 422//103 423//103 424//103 425//103 426//103 427//103 428//103 429//103 430//103 431//103 432//103
o Room4
v 0.610000 0.001000 1.760000
v 0.610000 0.001000 0.490000
v -0.530000 0.001000 0.490000
v -0.530000 0.001000 1.760000
vn 0.0000 1.0000 0.0000
usemtl MaterialName.103
s off
f 433//104 434//104 435//104 436//104
